<svg width="1440" height="514" viewBox="0 0 1440 514" fill="none" xmlns="http://www.w3.org/2000/svg">
<path d="M-1400.11 13.6357C-1257.48 -20.4996 -1078.9 18.2486 -941.876 56.9969C-804.853 95.7452 -636.383 138.184 -484.76 109.584C-420.358 93.0573 -360.485 73.725 -306.182 51.9227C-238.042 31.3172 -156.046 19.8767 -71.4464 19.1712C81.1396 24.8677 228.219 45.4254 357.591 79.1388C422.135 95.9936 494.284 107.335 569.734 112.487C645.184 117.638 722.387 116.494 796.736 109.123C883.253 90.2306 967.234 69.4426 1048.32 46.8486C1215.67 12.2519 1418.95 27.9357 1597.53 52.384C1709.84 68.0679 1828.9 87.442 1946.83 98.5129V513.673H-1603.4V115.581C-1533.77 80.9839 -1491.09 35.7776 -1400.11 13.6357Z" fill="#14909E"/>
</svg>
